<?xml version="1.0" standalone="no"?>
<!DOCTYPE svg PUBLIC "-//W3C//DTD SVG 20010904//EN"
 "http://www.w3.org/TR/2001/REC-SVG-20010904/DTD/svg10.dtd">
<svg version="1.0" xmlns="http://www.w3.org/2000/svg"
 width="770.000000pt" height="770.000000pt" viewBox="0 0 770.000000 770.000000"
 preserveAspectRatio="xMidYMid meet">
<metadata>
Created by potrace 1.14, written by Peter Selinger 2001-2017
</metadata>
<g transform="translate(0.000000,770.000000) scale(0.100000,-0.100000)"
fill="#000000" stroke="none">
<path d="M0 3850 l0 -3850 3850 0 3850 0 0 3850 0 3850 -3850 0 -3850 0 0
-3850z m4280 3320 c290 -34 500 -82 763 -175 711 -251 1318 -745 1721 -1398
196 -318 359 -739 426 -1102 49 -260 60 -415 60 -847 0 -360 -2 -419 -19 -505
-68 -348 -286 -645 -595 -809 -294 -156 -641 -180 -955 -65 -198 72 -387 211
-511 375 -23 31 -45 56 -47 56 -3 0 -46 -36 -97 -81 -313 -278 -688 -421
-1106 -421 -418 0 -793 143 -1107 421 -357 317 -555 759 -555 1241 0 418 143
793 421 1107 317 357 759 555 1241 555 339 0 642 -91 918 -275 340 -228 583
-563 687 -949 51 -187 57 -249 62 -648 5 -414 8 -441 68 -540 173 -285 551
-333 784 -99 83 82 126 171 142 289 16 116 5 746 -15 895 -66 488 -249 923
-556 1319 -96 124 -323 350 -446 445 -287 219 -622 388 -947 475 -240 64 -434
89 -697 89 -433 0 -787 -82 -1176 -273 -271 -133 -477 -280 -697 -498 -223
-220 -381 -439 -517 -716 -190 -387 -273 -745 -273 -1176 0 -433 82 -787 273
-1176 133 -271 280 -477 498 -697 220 -223 439 -381 716 -517 385 -189 743
-273 1171 -273 438 -1 817 87 1190 276 66 34 143 72 170 86 37 18 71 26 132
29 75 4 87 2 146 -25 76 -36 127 -84 164 -156 24 -45 28 -63 28 -142 0 -78 -4
-97 -28 -147 -36 -74 -96 -125 -224 -194 -675 -363 -1439 -478 -2208 -334
-531 99 -1064 351 -1490 705 -940 782 -1372 1988 -1145 3200 99 531 351 1064
705 1490 637 765 1556 1199 2550 1204 151 1 257 -5 375 -19z"/>
<path d="M3778 4850 c-142 -23 -303 -85 -415 -161 -405 -275 -555 -809 -349
-1245 102 -216 243 -363 446 -468 294 -152 626 -152 920 0 203 105 344 252
446 468 206 436 56 970 -349 1245 -78 53 -226 119 -317 141 -97 24 -294 34
-382 20z"/>
</g>
</svg>
